# xmcd
#
# Track frame offsets:
#	151
#	11358
#	27513
#	38830
#	58153
#	67492
#	89007
#	107294
#	142387
#	171216
#	197545
#
# Disc length: 2820 seconds
#
# Revision: 0
# Processed by: cddbd v1.5.2PL0 Copyright (c) Steve Scherf et al.
# Submitted via: dBpowerAMP V4.0
#
DISCID=a00b020b
DTITLE=Ugetsu Monogatari - The Advanced Philosophy of Things You Can Undo
DYEAR=2000
DGENRE=Alt. Rock, Britpop
TTITLE0=Indycator
TTITLE1=Farewell to Melody
TTITLE2=Collateral Song
TTITLE3=The Inessential Blues In Our Lives
TTITLE4=We Won't Continue
TTITLE5=Instant Love
TTITLE6=Endgames
TTITLE7=Enantiomorph
TTITLE8=Lick Me
TTITLE9=Attic Seas
TTITLE10=hidden track
EXTD=
EXTT0=
EXTT1=
EXTT2=
EXTT3=
EXTT4=
EXTT5=
EXTT6=
EXTT7=
EXTT8=
EXTT9=
EXTT10=
PLAYORDER=
